<svg width="40" height="40" viewBox="0 0 40 40" fill="none" xmlns="http://www.w3.org/2000/svg">
<circle cx="20" cy="20" r="19.5" stroke="#000000" stroke-opacity="0.4"/>
<path d="M22.5514 22.4217C22.5028 22.4217 22.4538 22.4134 22.4062 22.3964C22.2356 22.3351 22.1218 22.1733 22.1218 21.992V18.775L14.0493 14.115C13.8438 13.9963 13.7734 13.7335 13.892 13.528C14.0106 13.3225 14.2734 13.2521 14.4789 13.3707L22.7664 18.1548C22.8994 18.2315 22.9813 18.3734 22.9813 18.5269V20.796L23.8893 19.6955C23.9918 19.5712 24.1553 19.5148 24.3127 19.5492L25.121 19.7264V17.0435L17.0435 12.3829C16.838 12.2643 16.7675 12.0015 16.8861 11.796C17.0047 11.5904 17.2675 11.52 17.473 11.6385L25.7654 16.4232C25.8984 16.4999 25.9803 16.6418 25.9803 16.7953V20.2605C25.9803 20.3906 25.9214 20.5137 25.82 20.5952C25.7186 20.6768 25.5857 20.708 25.4587 20.6802L24.3851 20.4449L22.883 22.2655C22.7998 22.3663 22.6773 22.4217 22.5514 22.4217Z" fill="#000000"/>
<path d="M28.6871 15.056C28.6859 15.053 28.6848 15.05 28.6836 15.047C28.6812 15.0417 28.6784 15.0365 28.6758 15.0312C28.6391 14.9536 28.58 14.8871 28.5031 14.8426L20.2149 10.0576C20.082 9.98081 19.9181 9.98081 19.7852 10.0576L11.5575 14.8078C11.468 14.8416 11.3891 14.9053 11.3375 14.9946C11.291 15.0752 11.2739 15.1645 11.2822 15.2506V24.7851C11.2822 24.9387 11.3641 25.0805 11.4971 25.1573L19.7852 29.9424C19.9182 30.0192 20.082 30.0192 20.2149 29.9424L28.5031 25.1573C28.636 25.0805 28.7179 24.9386 28.7179 24.7851V15.2604C28.7244 15.1923 28.7146 15.1223 28.6871 15.056ZM20 10.9258L27.4342 15.2179L20.0003 19.5038L12.5744 15.213L20 10.9258ZM12.1416 15.9555L19.5703 20.2479V28.8261L12.1416 24.5371V15.9555ZM20.4297 28.8261V20.2482L27.8586 15.9652V24.5371L20.4297 28.8261Z" fill="#000000"/>
<path d="M15.0002 25.1685C14.9273 25.1685 14.8535 25.1499 14.7858 25.1108L13.0101 24.0856C12.8046 23.967 12.7341 23.7042 12.8528 23.4987C12.9715 23.2932 13.2343 23.2228 13.4398 23.3414L15.2155 24.3666C15.421 24.4853 15.4914 24.7481 15.3727 24.9536C15.2932 25.0914 15.1488 25.1685 15.0002 25.1685Z" fill="#000000"/>
<path d="M14.2013 22.9564C14.1284 22.9564 14.0545 22.9378 13.9868 22.8988L13.0103 22.335C12.8048 22.2163 12.7344 21.9535 12.8531 21.748C12.9717 21.5425 13.2345 21.4721 13.44 21.5908L14.4165 22.1546C14.622 22.2732 14.6925 22.536 14.5738 22.7415C14.4942 22.8793 14.3498 22.9564 14.2013 22.9564Z" fill="#000000"/>
</svg>
